<svg width="18" height="18" viewBox="0 0 18 18" fill="none" xmlns="http://www.w3.org/2000/svg">
<rect width="4.88" height="1.5" rx="0.75" transform="matrix(-1 -2.18557e-08 -2.18557e-08 1 13.88 5.36371)" fill="#C7C7C7"/>
<rect width="4.87646" height="1.5" rx="0.75" transform="matrix(2.18557e-08 -1 -1 -2.18557e-08 13.88 6.87646)" fill="#C7C7C7"/>
<path d="M14.974 9.50043C14.99 9.27944 14.9909 9.07853 14.9805 8.90491C14.9557 8.49144 14.6003 8.1764 14.1869 8.20124C13.7734 8.22609 13.4584 8.58141 13.4832 8.99488C13.4935 9.16526 13.4879 9.37317 13.4596 9.60529C13.2585 11.1012 12.3225 12.3641 11.0267 13.0188C10.9554 13.0524 10.8822 13.0847 10.8069 13.1156C10.7732 13.1295 10.741 13.1456 10.7104 13.1635C10.1831 13.3804 9.60552 13.5 9 13.5C6.51472 13.5 4.5 11.4853 4.5 9C4.5 6.51472 6.51472 4.5 9 4.5C10.4167 4.5 11.6805 5.15468 12.5054 6.17802L13.5133 5.04634C12.4135 3.79197 10.7993 3 9 3C5.68629 3 3 5.68629 3 9C3 12.3137 5.68629 15 9 15C9.96583 15 10.8784 14.7718 11.6866 14.3664C13.7211 13.4026 14.5761 11.6583 14.8644 10.2745C14.9194 10.0199 14.9584 9.75921 14.98 9.49365L14.974 9.50043Z" fill="#C7C7C7"/>
</svg>
