<svg width="18" height="18" viewBox="0 0 18 18" fill="none" xmlns="http://www.w3.org/2000/svg">
<path fill-rule="evenodd" clip-rule="evenodd" d="M11.8284 6.17158C12.1213 6.46447 12.1213 6.93934 11.8284 7.23224L7.23224 11.8284C6.93935 12.1213 6.46448 12.1213 6.17158 11.8284C5.87869 11.5355 5.87869 11.0607 6.17158 10.7678L10.7678 6.17158C11.0607 5.87868 11.5355 5.87868 11.8284 6.17158Z" fill="#C7C7C7"/>
<path fill-rule="evenodd" clip-rule="evenodd" d="M11.8284 11.8284C11.5355 12.1213 11.0607 12.1213 10.7678 11.8284L6.17157 7.23223C5.87868 6.93934 5.87868 6.46447 6.17157 6.17157C6.46447 5.87868 6.93934 5.87868 7.23223 6.17157L11.8284 10.7678C12.1213 11.0607 12.1213 11.5355 11.8284 11.8284Z" fill="#C7C7C7"/>
</svg>
