<svg width="18" height="18" viewBox="0 0 18 18" fill="none" xmlns="http://www.w3.org/2000/svg">
<path fill-rule="evenodd" clip-rule="evenodd" d="M13 9C13 9.41421 12.6642 9.75 12.25 9.75L5.75 9.75C5.33579 9.75 5 9.41421 5 9C5 8.58579 5.33579 8.25 5.75 8.25L12.25 8.25C12.6642 8.25 13 8.58578 13 9Z" fill="#C7C7C7"/>
<path fill-rule="evenodd" clip-rule="evenodd" d="M9 13C8.58579 13 8.25 12.6642 8.25 12.25L8.25 5.74999C8.25 5.33578 8.58579 4.99999 9 4.99999C9.41421 4.99999 9.75 5.33578 9.75 5.74999L9.75 12.25C9.75 12.6642 9.41421 13 9 13Z" fill="#C7C7C7"/>
</svg>
