<svg width="18" height="18" viewBox="0 0 18 18" fill="none" xmlns="http://www.w3.org/2000/svg">
<path d="M11.4656 6.28365C10.8256 5.69455 10.0241 5.3891 9.1224 5.3891C7.53062 5.3891 6.17813 6.44176 5.69388 7.85989C5.57143 8.21989 5.49905 8.60168 5.49905 8.99992C5.49905 9.39816 5.57143 9.77995 5.69388 10.14L5.68457 10.1471L5.69119 10.1421L5.69369 10.1456C6.17796 11.5638 7.53044 12.6165 9.12227 12.6165C9.94599 12.6165 10.6417 12.3983 11.1872 12.0383L13.1742 13.5492C12.1612 14.4656 10.7753 15.0001 9.12227 15.0001C6.72896 15.0001 4.66416 13.6473 3.65674 11.6892C3.23932 10.8819 3 9.97088 3 8.99998C3 8.02908 3.23931 7.11816 3.65673 6.31091C4.66415 4.34726 6.72908 3 9.1224 3C10.7755 3 12.1558 3.59459 13.2189 4.56548L11.4656 6.28365Z" fill="#C7C7C7"/>
<path d="M9.12256 10.2327V7.90906L14.8888 7.90912C14.9612 8.30182 15.0001 8.71095 15.0001 9.1364C15.0001 10.9637 14.3319 12.502 13.1742 13.5492L11.1872 12.0383C11.8384 11.6128 12.2729 10.98 12.4176 10.2327H9.12256Z" fill="#C7C7C7"/>
</svg>
