<svg width="18" height="18" viewBox="0 0 18 18" fill="none" xmlns="http://www.w3.org/2000/svg">
<path fill-rule="evenodd" clip-rule="evenodd" d="M9.02571 3.76941H8.50495C8.22881 3.76941 8.00495 3.99327 8.00495 4.26941V5.97615H7.99964H5.03309V7.52342C6.06901 7.59869 6.88606 8.46298 6.88606 9.5181V10.0388C6.88606 11.094 6.06901 11.9583 5.03309 12.0335V13.5808H12.4976V10.5375L14.3446 10.5388C14.6208 10.5388 14.8446 10.315 14.8446 10.0388V9.5181C14.8446 9.24195 14.6208 9.0181 14.3446 9.0181L12.4976 9.02272V5.97615L9.52571 5.96407V4.26941C9.52571 3.99327 9.30185 3.76941 9.02571 3.76941ZM3.53308 10.5388H4.88606C5.1622 10.5388 5.38606 10.315 5.38606 10.0388V9.5181C5.38606 9.24195 5.1622 9.0181 4.88606 9.0181H3.53309V5.72615C3.53309 5.0358 4.09274 4.47615 4.78309 4.47615H6.50496V4.26941C6.50496 3.16484 7.40039 2.26941 8.50495 2.26941H9.02571C10.1303 2.26941 11.0257 3.16484 11.0257 4.26941V4.47615H12.7476C13.4379 4.47615 13.9976 5.0358 13.9976 5.72615V7.5181H14.3446C15.4492 7.5181 16.3446 8.41353 16.3446 9.5181V10.0388C16.3446 11.1434 15.4492 12.0388 14.3446 12.0388H13.9976V13.8308C13.9976 14.5211 13.4379 15.0808 12.7476 15.0808H4.78309C4.09274 15.0808 3.53309 14.5211 3.53309 13.8308L3.53308 10.5388Z" fill="#C7C7C7"/>
</svg>
