<svg width="18" height="18" viewBox="0 0 18 18" fill="none" xmlns="http://www.w3.org/2000/svg">
<path d="M9 16C12.866 16 16 12.866 16 9C16 8.18464 15.8606 7.40184 15.6043 6.67413L11.2938 6.67413C11.8944 7.2665 12.2667 8.08978 12.2667 9.00002C12.2667 9.71679 12.0359 10.3796 11.6444 10.9183L8.71383 15.9943C8.80874 15.9981 8.90415 16 9 16Z" fill="#C7C7C7"/>
<path d="M7.70213 15.8799L9.85319 12.1542C9.58122 12.2275 9.2952 12.2667 9.00004 12.2667C8.14414 12.2667 7.36512 11.9375 6.78267 11.3989C6.75675 11.38 6.7324 11.3581 6.7101 11.3333L6.6793 11.299C6.60401 11.223 6.53243 11.1433 6.46485 11.0603L2.4327 6.57159C2.15286 7.32811 2 8.14621 2 9C2 12.4225 4.45625 15.2714 7.70213 15.8799Z" fill="#C7C7C7"/>
<path d="M2.84469 5.6637C4.03001 3.48145 6.342 2 9 2C11.6892 2 14.0242 3.51642 15.1966 5.7408L9.22236 5.7408C9.14889 5.73586 9.07476 5.73335 9.00004 5.73335C8.92532 5.73335 8.85118 5.73586 8.77771 5.7408H8.7508C8.71565 5.7408 8.68141 5.74468 8.64849 5.75205C7.05761 5.92227 5.80834 7.23455 5.73662 8.85293L2.95055 5.75143C2.91894 5.71623 2.88318 5.68697 2.84469 5.6637Z" fill="#C7C7C7"/>
<path d="M9 6.66667C9.21641 6.66667 9.42594 6.69613 9.62479 6.75127C9.87387 6.82031 10.1062 6.92964 10.3143 7.07178C10.9296 7.49192 11.3334 8.19881 11.3334 9.00002C11.3334 9.48949 11.1827 9.94376 10.9251 10.319C10.9051 10.348 10.8843 10.3769 10.8631 10.405C10.4371 10.9688 9.76104 11.3334 9.00004 11.3334C8.67965 11.3334 8.37434 11.2688 8.09642 11.1519C8.01826 11.1191 7.94226 11.0821 7.8687 11.0412C7.15181 10.6431 6.66667 9.87818 6.66667 9C6.66667 7.71134 7.71134 6.66667 9 6.66667Z" fill="#C7C7C7"/>
</svg>
