<svg width="18" height="18" viewBox="0 0 18 18" fill="none" xmlns="http://www.w3.org/2000/svg">
<path fill-rule="evenodd" clip-rule="evenodd" d="M11.686 5.71684H12.8334C13.6618 5.71684 14.3334 6.38842 14.3334 7.21684V13.5758C14.3334 14.4042 13.6618 15.0758 12.8334 15.0758H5.16669C4.33826 15.0758 3.66669 14.4042 3.66669 13.5758V7.21684C3.66669 6.38842 4.33826 5.71684 5.16669 5.71684H6.32361V4.33252C6.32361 2.85172 7.52403 1.65131 9.00482 1.65131C10.4856 1.65131 11.686 2.85173 11.686 4.33252V5.71684ZM10.686 5.71684V4.33252C10.686 3.40401 9.93333 2.65131 9.00482 2.65131C8.07631 2.65131 7.32361 3.40401 7.32361 4.33252V5.71684H10.686ZM5.16669 7.21684H12.8334V13.5758H5.16669V7.21684Z" fill="#C7C7C7"/>
<path d="M9.70711 9.70202C9.51957 9.51449 9.26522 9.40913 9 9.40913C8.73478 9.40913 8.48043 9.51449 8.29289 9.70202C8.10536 9.88956 8 10.1439 8 10.4091C8 10.6743 8.10536 10.9287 8.29289 11.1162C8.48043 11.3038 8.73478 11.4091 9 11.4091C9.26522 11.4091 9.51957 11.3038 9.70711 11.1162C9.89464 10.9287 10 10.6743 10 10.4091C10 10.1439 9.89464 9.88956 9.70711 9.70202Z" fill="#C7C7C7"/>
</svg>
