<svg width="18" height="18" viewBox="0 0 18 18" fill="none" xmlns="http://www.w3.org/2000/svg">
<path d="M9.00002 5.45835C8.80851 5.45835 8.61887 5.42063 8.44194 5.34734C8.26501 5.27406 8.10424 5.16664 7.96882 5.03122C7.8334 4.8958 7.72598 4.73503 7.6527 4.5581C7.57941 4.38117 7.54169 4.19153 7.54169 4.00002C7.54169 3.80851 7.57941 3.61887 7.6527 3.44194C7.72598 3.26501 7.8334 3.10424 7.96882 2.96882C8.10424 2.8334 8.26501 2.72598 8.44194 2.6527C8.61887 2.57941 8.80851 2.54169 9.00002 2.54169C9.38679 2.54169 9.75773 2.69533 10.0312 2.96882C10.3047 3.24231 10.4584 3.61325 10.4584 4.00002C10.4584 4.38679 10.3047 4.75773 10.0312 5.03122C9.75773 5.30471 9.38679 5.45835 9.00002 5.45835ZM9.00002 10.4584C8.61325 10.4584 8.24231 10.3047 7.96882 10.0312C7.69533 9.75773 7.54169 9.38679 7.54169 9.00002C7.54169 8.61325 7.69533 8.24231 7.96882 7.96882C8.24231 7.69533 8.61325 7.54169 9.00002 7.54169C9.38679 7.54169 9.75773 7.69533 10.0312 7.96882C10.3047 8.24231 10.4584 8.61325 10.4584 9.00002C10.4584 9.38679 10.3047 9.75773 10.0312 10.0312C9.75773 10.3047 9.38679 10.4584 9.00002 10.4584ZM7.54169 14C7.54169 14.3868 7.69533 14.7577 7.96882 15.0312C8.24231 15.3047 8.61325 15.4584 9.00002 15.4584C9.38679 15.4584 9.75773 15.3047 10.0312 15.0312C10.3047 14.7577 10.4584 14.3868 10.4584 14C10.4584 13.6132 10.3047 13.2423 10.0312 12.9688C9.75773 12.6953 9.38679 12.5417 9.00002 12.5417C8.61325 12.5417 8.24231 12.6953 7.96882 12.9688C7.69533 13.2423 7.54169 13.6132 7.54169 14Z" fill="#C7C7C7"/>
</svg>
