<svg width="18" height="18" viewBox="0 0 18 18" fill="none" xmlns="http://www.w3.org/2000/svg">
<path d="M7.14025 11.6061L4.96977 9.41571C4.86184 9.31052 4.7173 9.25232 4.56726 9.25363C4.41722 9.25495 4.2737 9.31568 4.1676 9.42275C4.06151 9.52982 4.00133 9.67466 4.00002 9.82607C3.99872 9.97748 4.0564 10.1234 4.16063 10.2323L6.73568 12.8309C6.84299 12.9392 6.98851 13 7.14025 13C7.29198 13 7.4375 12.9392 7.54481 12.8309L13.8394 6.47866C13.9436 6.36975 14.0013 6.22387 14 6.07246C13.9987 5.92105 13.9385 5.77621 13.8324 5.66914C13.7263 5.56207 13.5828 5.50134 13.4327 5.50002C13.2827 5.49871 13.1382 5.55691 13.0302 5.66211L7.14025 11.6061Z" fill="white"/>
</svg>
